<svg width="280" height="280" xmlns="http://www.w3.org/2000/svg">

 <g>
  <title>Layer 1</title>
  <path transform="rotate(0.051105 137.313 141.46)" stroke="#000" id="svg_3" d="m224.79533,67.65821c-0.81528,-35.12432 -29.25243,-63.3473 -64.22952,-63.3652c-23.37713,0.00895 -43.79446,12.63903 -55.01336,31.4812c-5.2727,-2.92703 -11.34296,-4.62775 -17.81199,-4.62775c-20.19579,0.0179 -36.62536,16.16578 -37.36088,36.39538c-21.20602,7.03561 -36.55446,27.07723 -36.57219,50.89625c0,29.64621 23.81136,53.70691 53.17013,53.70691l0,-0.0179l46.70996,0l-19.19442,30.41601l17.51956,-3.67892l-23.4303,79.76371l80.97811,-90.42454l-18.94629,2.03191l19.20328,-18.10818l37.83055,0c29.34991,0 53.17013,-24.0607 53.17013,-53.70691c-0.01772,-23.60419 -15.10032,-43.56526 -36.02276,-50.76198zm-17.14737,86.58449l-140.6793,0c-19.57547,-0.05371 -35.42017,-16.04046 -35.45561,-35.81356c-0.01772,-17.74118 12.84945,-32.38527 29.68666,-35.18698c2.34835,-0.3849 4.44857,-1.70967 5.82213,-3.70578c1.37356,-1.99611 1.87868,-4.44872 1.44446,-6.82973c-0.24813,-1.32477 -0.39878,-2.57793 -0.39878,-3.79529c0.03545,-10.96516 8.81738,-19.83575 19.67295,-19.85365c5.73351,0 10.78467,2.48842 14.47114,6.54329c2.06477,2.30045 5.20181,3.35668 8.21478,2.76591c3.0307,-0.59078 5.54742,-2.748 6.62854,-5.63923c6.6374,-17.83069 23.58981,-30.54133 43.51975,-30.52343c25.69003,0.0358 46.47069,21.03521 46.53272,46.9846c0,1.44114 -0.07976,2.91808 -0.23927,4.44872c-0.43422,4.62775 2.70281,8.80793 7.22228,9.65829c16.48274,3.0792 29.01317,17.59796 28.98658,35.11537c-0.03545,19.78205 -15.85356,35.77775 -35.42903,35.83146z" fill="#ffff00"/>
 </g>
</svg>